<?xml version="1.0" encoding="iso-8859-1"?><!-- Generator: Adobe Illustrator 23.0.3, SVG Export Plug-In . SVG Version: 6.00 Build 0)  --><svg xmlns="http://www.w3.org/2000/svg" xmlns:xlink="http://www.w3.org/1999/xlink" viewBox="0 0 48 48" width="48px" height="48px"><path style="fill:#1A237E;" d="M43.607,23.752l-7.162-4.172v11.594H44v-6.738C44,24.155,43.85,23.894,43.607,23.752z"/><g><path style="fill:#0C4999;" d="M33.919,8.84h9.046V7.732C42.965,6.775,42.19,6,41.234,6H17.667c-0.956,0-1.732,0.775-1.732,1.732   V8.84h9.005H33.919z"/><path style="fill:#0F73D9;" d="M33.919,33.522h7.314c0.956,0,1.732-0.775,1.732-1.732v-6.827h-9.046V33.522z"/><path style="fill:#0F439D;" d="M15.936,24.964v6.827c0,0.956,0.775,1.732,1.732,1.732h7.273v-8.558H15.936z"/><rect x="33.919" y="8.84" style="fill:#2ECDFD;" width="9.046" height="8.027"/><rect x="15.936" y="8.84" style="fill:#1C5FB0;" width="9.005" height="8.027"/><rect x="24.94" y="24.964" style="fill:#1467C7;" width="8.979" height="8.558"/><rect x="24.94" y="8.84" style="fill:#1690D5;" width="8.979" height="8.027"/><rect x="33.919" y="16.867" style="fill:#1BB4FF;" width="9.046" height="8.096"/><rect x="15.936" y="16.867" style="fill:#074DAF;" width="9.005" height="8.096"/><rect x="24.94" y="16.867" style="fill:#2076D4;" width="8.979" height="8.096"/></g><path style="fill:#2ED0FF;" d="M15.441,42c0.463,0,26.87,0,26.87,0C43.244,42,44,41.244,44,40.311V24.438  c0,0-0.03,0.658-1.751,1.617c-1.3,0.724-27.505,15.511-27.505,15.511S14.978,42,15.441,42z"/><path style="fill:#139FE2;" d="M42.279,41.997c-0.161,0-26.59,0.003-26.59,0.003C14.756,42,14,41.244,14,40.311V25.067  l29.363,16.562C43.118,41.825,42.807,41.997,42.279,41.997z"/><path style="fill:#00488D;" d="M22.319,34H5.681C4.753,34,4,33.247,4,32.319V15.681C4,14.753,4.753,14,5.681,14h16.638  C23.247,14,24,14.753,24,15.681v16.638C24,33.247,23.247,34,22.319,34z"/><path style="fill:#FFFFFF;" d="M13.914,18.734c-3.131,0-5.017,2.392-5.017,5.343c0,2.951,1.879,5.342,5.017,5.342  c3.139,0,5.017-2.392,5.017-5.342C18.931,21.126,17.045,18.734,13.914,18.734z M13.914,27.616c-1.776,0-2.838-1.584-2.838-3.539  s1.067-3.539,2.838-3.539c1.771,0,2.839,1.585,2.839,3.539S15.689,27.616,13.914,27.616z"/></svg>